<svg xmlns="http://www.w3.org/2000/svg" xmlns:xlink="http://www.w3.org/1999/xlink" viewBox="0 0 192 192" width="192" height="192" style="width: 100%; height: 100%; transform: translate3d(0px, 0px, 0px); content-visibility: visible;" preserveAspectRatio="xMidYMid meet" id="Calendar"><defs><clipPath id="__lottie_element_2047"><rect width="192" height="192" x="0" y="0"/></clipPath></defs><g clip-path="url(#__lottie_element_2047)"><g style="display: block;" transform="matrix(1,0,0,1,23.667999267578125,34.000999450683594)" opacity="1"><g opacity="1" transform="matrix(1,0,0,1,72.33200073242188,67.16600036621094)"><path stroke-linecap="round" stroke-linejoin="round" fill-opacity="0" stroke="rgb(7,5,6)" stroke-opacity="1" stroke-width="10.333" d=" M36.16699981689453,41.33300018310547 C36.16699981689453,41.33300018310547 -36.16600036621094,41.33300018310547 -36.16600036621094,41.33300018310547 C-41.874000549316406,41.33300018310547 -46.5,36.70800018310547 -46.5,31.000999450683594 C-46.5,31.000999450683594 -46.5,-31 -46.5,-31 C-46.5,-36.707000732421875 -41.874000549316406,-41.33300018310547 -36.16600036621094,-41.33300018310547 C-36.16600036621094,-41.33300018310547 36.16699981689453,-41.33300018310547 36.16699981689453,-41.33300018310547 C41.874000549316406,-41.33300018310547 46.5,-36.707000732421875 46.5,-31 C46.5,-31 46.5,31.000999450683594 46.5,31.000999450683594 C46.5,36.70800018310547 41.874000549316406,41.33300018310547 36.16699981689453,41.33300018310547z"/></g><g opacity="1" transform="matrix(1,0,0,1,0,0)"><path stroke-linecap="round" stroke-linejoin="round" fill-opacity="0" stroke="rgb(7,5,6)" stroke-opacity="1" stroke-width="10.333" d=" M25.832000732421875,46.499000549316406 C25.832000732421875,46.499000549316406 118.83200073242188,46.499000549316406 118.83200073242188,46.499000549316406"/></g><g opacity="1" transform="matrix(1,0,0,1,0,0)"><path stroke-linecap="round" stroke-linejoin="round" fill-opacity="0" stroke="rgb(7,5,6)" stroke-opacity="1" stroke-width="10.333" d=" M46.499000549316406,15.49899959564209 C46.499000549316406,15.49899959564209 46.499000549316406,25.832000732421875 46.499000549316406,25.832000732421875"/></g><g opacity="1" transform="matrix(1,0,0,1,0,0)"><path stroke-linecap="round" stroke-linejoin="round" fill-opacity="0" stroke="rgb(7,5,6)" stroke-opacity="1" stroke-width="10.333" d=" M98.16500091552734,15.49899959564209 C98.16500091552734,15.49899959564209 98.16500091552734,25.832000732421875 98.16500091552734,25.832000732421875"/></g></g><g style="display: block;" transform="matrix(1,0,0,1,64.7509994506836,95.7509994506836)" opacity="1"><g opacity="1" transform="matrix(1,0,0,1,5.416999816894531,5.416999816894531)"><path fill="rgb(7,5,6)" fill-opacity="1" d=" M5.166999816894531,0.0010000000474974513 C5.166999816894531,2.8550000190734863 2.8529999256134033,5.166999816894531 -0.0010000000474974513,5.166999816894531 C-2.8550000190734863,5.166999816894531 -5.166999816894531,2.8550000190734863 -5.166999816894531,0.0010000000474974513 C-5.166999816894531,-2.8529999256134033 -2.8550000190734863,-5.166999816894531 -0.0010000000474974513,-5.166999816894531 C2.8529999256134033,-5.166999816894531 5.166999816894531,-2.8529999256134033 5.166999816894531,0.0010000000474974513z"/></g></g><g style="display: block;" transform="matrix(1,0,0,1,64.7509994506836,116.41799926757812)" opacity="1"><g opacity="1" transform="matrix(1,0,0,1,5.416999816894531,5.415999889373779)"><path fill="rgb(7,5,6)" fill-opacity="1" d=" M5.166999816894531,-0.0010000000474974513 C5.166999816894531,2.8529999256134033 2.8529999256134033,5.166999816894531 -0.0010000000474974513,5.166999816894531 C-2.8550000190734863,5.166999816894531 -5.166999816894531,2.8529999256134033 -5.166999816894531,-0.0010000000474974513 C-5.166999816894531,-2.8550000190734863 -2.8550000190734863,-5.166999816894531 -0.0010000000474974513,-5.166999816894531 C2.8529999256134033,-5.166999816894531 5.166999816894531,-2.8550000190734863 5.166999816894531,-0.0010000000474974513z"/></g></g><g style="display: block;" transform="matrix(1,0,0,1,90.58399963378906,95.7509994506836)" opacity="1"><g opacity="1" transform="matrix(1,0,0,1,5.416999816894531,5.416999816894531)"><path fill="rgb(7,5,6)" fill-opacity="1" d=" M5.166999816894531,0.0010000000474974513 C5.166999816894531,2.8550000190734863 2.8529999256134033,5.166999816894531 -0.0010000000474974513,5.166999816894531 C-2.8550000190734863,5.166999816894531 -5.166999816894531,2.8550000190734863 -5.166999816894531,0.0010000000474974513 C-5.166999816894531,-2.8529999256134033 -2.8550000190734863,-5.166999816894531 -0.0010000000474974513,-5.166999816894531 C2.8529999256134033,-5.166999816894531 5.166999816894531,-2.8529999256134033 5.166999816894531,0.0010000000474974513z"/></g></g><g style="display: block;" transform="matrix(1,0,0,1,90.58399963378906,116.41799926757812)" opacity="1"><g opacity="1" transform="matrix(1,0,0,1,5.416999816894531,5.415999889373779)"><path fill="rgb(7,5,6)" fill-opacity="1" d=" M5.166999816894531,-0.0010000000474974513 C5.166999816894531,2.8529999256134033 2.8529999256134033,5.166999816894531 -0.0010000000474974513,5.166999816894531 C-2.8550000190734863,5.166999816894531 -5.166999816894531,2.8529999256134033 -5.166999816894531,-0.0010000000474974513 C-5.166999816894531,-2.8550000190734863 -2.8550000190734863,-5.166999816894531 -0.0010000000474974513,-5.166999816894531 C2.8529999256134033,-5.166999816894531 5.166999816894531,-2.8550000190734863 5.166999816894531,-0.0010000000474974513z"/></g></g><g style="display: block;" transform="matrix(1,0,0,1,116.41699981689453,95.7509994506836)" opacity="1"><g opacity="1" transform="matrix(1,0,0,1,5.415999889373779,5.416999816894531)"><path fill="rgb(7,5,6)" fill-opacity="1" d=" M5.166999816894531,0.0010000000474974513 C5.166999816894531,2.8550000190734863 2.8529999256134033,5.166999816894531 -0.0010000000474974513,5.166999816894531 C-2.8550000190734863,5.166999816894531 -5.166999816894531,2.8550000190734863 -5.166999816894531,0.0010000000474974513 C-5.166999816894531,-2.8529999256134033 -2.8550000190734863,-5.166999816894531 -0.0010000000474974513,-5.166999816894531 C2.8529999256134033,-5.166999816894531 5.166999816894531,-2.8529999256134033 5.166999816894531,0.0010000000474974513z"/></g></g><g style="display: block;" transform="matrix(1,0,0,1,116.41699981689453,116.41799926757812)" opacity="1"><g opacity="1" transform="matrix(1,0,0,1,5.415999889373779,5.415999889373779)"><path fill="rgb(7,5,6)" fill-opacity="1" d=" M5.166999816894531,-0.0010000000474974513 C5.166999816894531,2.8529999256134033 2.8529999256134033,5.166999816894531 -0.0010000000474974513,5.166999816894531 C-2.8550000190734863,5.166999816894531 -5.166999816894531,2.8529999256134033 -5.166999816894531,-0.0010000000474974513 C-5.166999816894531,-2.8550000190734863 -2.8550000190734863,-5.166999816894531 -0.0010000000474974513,-5.166999816894531 C2.8529999256134033,-5.166999816894531 5.166999816894531,-2.8550000190734863 5.166999816894531,-0.0010000000474974513z"/></g></g></g></svg>
