<?xml version="1.0" encoding="iso-8859-1"?>
<!-- Uploaded to: SVG Repo, www.svgrepo.com, Generator: SVG Repo Mixer Tools -->
<svg fill="#000000" height="800px" width="800px" version="1.1" id="Layer_1" xmlns="http://www.w3.org/2000/svg" xmlns:xlink="http://www.w3.org/1999/xlink"
	 viewBox="0 0 512 512" xml:space="preserve">
<g>
	<g>
		<path d="M490.667,234.667h-47.36L432.64,192h36.693c11.797,0,21.333-9.557,21.333-21.333V21.333
			C490.667,9.557,481.131,0,469.333,0H256c-11.797,0-21.333,9.557-21.333,21.333v149.333c0,11.776,9.536,21.333,21.333,21.333
			h36.693l-10.667,42.667H192v-21.333c11.797,0,21.333-9.557,21.333-21.333v-64c0-11.776-9.536-21.333-21.333-21.333h-21.333V64
			c0-11.776-9.536-21.333-21.333-21.333h-128C9.536,42.667,0,52.224,0,64v64c0,11.776,9.536,21.333,21.333,21.333h21.333v21.333
			c-11.797,0-21.333,9.557-21.333,21.333v42.667C9.536,234.667,0,244.224,0,256v64c0,11.776,9.536,21.333,21.333,21.333v149.333
			c0,11.776,9.536,21.333,21.333,21.333h170.667c11.797,0,21.333-9.557,21.333-21.333V341.333H448v149.333
			c0,11.776,9.536,21.333,21.333,21.333c11.797,0,21.333-9.557,21.333-21.333V341.333c11.797,0,21.333-9.557,21.333-21.333v-64
			C512,244.224,502.464,234.667,490.667,234.667z M336.661,192h52.011l10.667,42.667h-73.344L336.661,192z M42.667,85.333H128
			v21.333H64H42.667V85.333z M170.667,426.667c0,11.776-9.536,21.333-21.333,21.333C137.536,448,128,438.443,128,426.667V384
			c0-11.776,9.536-21.333,21.333-21.333c11.797,0,21.333,9.557,21.333,21.333V426.667z M469.333,298.667h-256H42.667v-21.333h128
			h128h128h42.667V298.667z"/>
	</g>
</g>
</svg>
