<?xml version="1.0" encoding="utf-8"?>

<!DOCTYPE svg PUBLIC "-//W3C//DTD SVG 1.1//EN" "http://www.w3.org/Graphics/SVG/1.1/DTD/svg11.dtd">
<!-- Uploaded to: SVG Repo, www.svgrepo.com, Generator: SVG Repo Mixer Tools -->
<svg height="800px" width="800px" version="1.1" id="_x32_" xmlns="http://www.w3.org/2000/svg" xmlns:xlink="http://www.w3.org/1999/xlink"
	 viewBox="0 0 512 512"  xml:space="preserve">
<style type="text/css">
	.st0{fill:#000000;}
</style>
<g>
	<path class="st0" d="M256.495,96.434c26.632,0,48.213-21.597,48.213-48.205C304.708,21.58,283.128,0,256.495,0
		c-26.65,0-48.222,21.58-48.222,48.229C208.274,74.837,229.846,96.434,256.495,96.434z"/>
	<path class="st0" d="M298.267,119.279h-42.271h-42.271c-23.362,0-48.779,25.418-48.779,48.788v162.058
		c0,11.685,9.463,21.156,21.148,21.156c5.743,0,0,0,14.756,0l8.048,138.206c0,12.434,10.078,22.513,22.513,22.513
		c5.244,0,14.923,0,24.585,0c9.671,0,19.35,0,24.593,0c12.434,0,22.513-10.078,22.513-22.513l8.04-138.206
		c14.764,0,9.013,0,14.764,0c11.676,0,21.148-9.471,21.148-21.156V168.067C347.054,144.697,321.636,119.279,298.267,119.279z"/>
	<path class="st0" d="M104.141,149.083c23.262,0,42.105-18.85,42.105-42.104c0-23.262-18.843-42.112-42.105-42.112
		c-23.27,0-42.104,18.851-42.104,42.112C62.037,130.232,80.871,149.083,104.141,149.083z"/>
	<path class="st0" d="M408.716,149.083c23.27,0,42.104-18.85,42.104-42.104c0-23.262-18.834-42.112-42.104-42.112
		c-23.253,0-42.104,18.851-42.104,42.112C366.612,130.232,385.463,149.083,408.716,149.083z"/>
	<path class="st0" d="M137.257,169.024h-33.548h-36.92c-20.398,0-42.595,22.213-42.595,42.612v141.526
		c0,10.212,8.264,18.476,18.468,18.476c5.018,0,0,0,12.884,0l7.024,120.704c0,10.852,8.805,19.658,19.666,19.658
		c4.577,0,13.024,0,21.473,0c8.439,0,16.895,0,21.472,0c10.861,0,19.666-8.805,19.666-19.658l7.016-120.704v-6.849
		c-8.98-8.856-14.606-21.082-14.606-34.664V169.024z"/>
	<path class="st0" d="M445.211,169.024h-36.928h-33.54v161.101c0,13.582-5.626,25.808-14.615,34.664v6.849l7.017,120.704
		c0,10.852,8.814,19.658,19.674,19.658c4.578,0,13.025,0,21.464,0c8.456,0,16.904,0,21.481,0c10.862,0,19.659-8.805,19.659-19.658
		l7.032-120.704c12.883,0,7.865,0,12.883,0c10.204,0,18.468-8.265,18.468-18.476V211.636
		C487.806,191.237,465.61,169.024,445.211,169.024z"/>
</g>
</svg>
