<?xml version="1.0" encoding="iso-8859-1"?>
<!-- Uploaded to: SVG Repo, www.svgrepo.com, Generator: SVG Repo Mixer Tools -->
<svg fill="#000000" height="800px" width="800px" version="1.1" id="Layer_1" xmlns="http://www.w3.org/2000/svg" xmlns:xlink="http://www.w3.org/1999/xlink"
	 viewBox="0 0 512 512" xml:space="preserve">
<g>
	<g>
		<path d="M501.801,195.034h-23.823v-24.643c0-14.664-11.93-26.595-26.595-26.595s-26.595,11.931-26.595,26.595v24.643h-24.815
			V93.205c0-5.633-4.566-10.199-10.199-10.199h-23.822V58.363c0-14.664-11.931-26.595-26.595-26.595
			c-14.664,0-26.596,11.931-26.596,26.595v24.643h-86.177V58.363c0-14.664-11.93-26.595-26.595-26.595
			c-14.665,0-26.595,11.93-26.595,26.595v24.643H87.213V58.363c0-14.664-11.931-26.595-26.595-26.595
			c-14.664,0-26.595,11.931-26.595,26.595v24.643H10.199C4.566,83.006,0,87.572,0,93.205v264.8c0,5.633,4.566,10.199,10.199,10.199
			h101.829v101.829c0,5.633,4.566,10.199,10.199,10.199h379.574c5.633,0,10.199-4.566,10.199-10.199v-264.8
			C512,199.6,507.434,195.034,501.801,195.034z M445.185,170.391c0-3.418,2.78-6.197,6.197-6.197c3.417,0,6.197,2.78,6.197,6.197
			v24.233h-12.394V170.391z M333.157,58.363c0-3.417,2.78-6.197,6.197-6.197s6.197,2.78,6.197,6.197v24.233h-12.394V58.363z
			 M193.789,58.363c0-3.417,2.78-6.197,6.197-6.197c3.417,0,6.197,2.78,6.197,6.197v24.233h-12.394V58.363z M54.421,58.363
			c0-3.417,2.78-6.197,6.197-6.197c3.418,0,6.197,2.78,6.197,6.197v24.233H54.421V58.363z M112.029,347.806H20.398V103.405h359.175
			v91.63h-12.804v-67.806c0-5.633-4.566-10.199-10.199-10.199H43.402c-5.633,0-10.199,4.566-10.199,10.199v196.755
			c0,5.633,4.566,10.199,10.199,10.199h68.627V347.806z M112.028,205.233v108.55H53.601V137.427h292.77v57.607h-7.762v-24.643
			c0-14.664-11.931-26.595-26.595-26.595c-14.664,0-26.595,11.931-26.595,26.595v24.643h-86.177v-24.643
			c0-14.664-11.931-26.595-26.595-26.595s-26.595,11.931-26.595,26.595v24.643h-23.823
			C116.594,195.034,112.028,199.6,112.028,205.233z M318.211,170.391v24.233h-12.394v-24.233c0-3.418,2.78-6.197,6.197-6.197
			C315.432,164.194,318.211,166.974,318.211,170.391z M178.843,170.391v24.233h-12.394v-24.233c0-3.418,2.78-6.197,6.197-6.197
			S178.843,166.974,178.843,170.391z M491.602,459.834H132.426V215.433h359.175V459.834z"/>
	</g>
</g>
<g>
	<g>
		<path d="M468.598,229.057H155.43c-5.633,0-10.199,4.566-10.199,10.199v196.755c0,5.633,4.566,10.199,10.199,10.199h313.169
			c5.633,0,10.199-4.566,10.199-10.199V239.256C478.797,233.623,474.231,229.057,468.598,229.057z M458.399,425.812h-292.77V249.455
			h292.77V425.812z"/>
	</g>
</g>
<g>
	<g>
		<path d="M338.247,364.122h-19.747c0.716-0.665,1.435-1.34,2.155-2.026c17.754-16.902,26.384-30.624,26.384-41.949
			c0-19.202-15.622-34.824-34.824-34.824c-19.202,0-34.824,15.622-34.824,34.824c0,5.633,4.566,10.199,10.199,10.199
			c5.633,0,10.199-4.566,10.199-10.199c0-7.954,6.471-14.426,14.426-14.426c7.82,0,14.426,6.606,14.426,14.426
			c0,0.824-0.558,8.584-19.913,27.044c-11.016,10.506-22.265,18.839-22.375,18.921c-3.546,2.614-5.012,7.21-3.636,11.395
			c1.377,4.185,5.284,7.013,9.689,7.013h47.841c5.633,0,10.198-4.565,10.198-10.198C348.447,368.688,343.88,364.122,338.247,364.122
			z"/>
	</g>
</g>
</svg>
