<?xml version="1.0" encoding="iso-8859-1"?>
<!-- Uploaded to: SVG Repo, www.svgrepo.com, Generator: SVG Repo Mixer Tools -->
<svg fill="#000000" height="800px" width="800px" version="1.1" id="Layer_1" xmlns="http://www.w3.org/2000/svg" xmlns:xlink="http://www.w3.org/1999/xlink"
	 viewBox="0 0 392.663 392.663" xml:space="preserve">
<g>
	<g>
		<path d="M153.956,117.98c-11.055-3.943-22.238-6.788-33.293-8.598c-4.719-0.711-9.244,1.616-11.442,5.883l-18.554,36.848
			l-18.554-36.848c-2.133-4.267-6.723-6.594-11.442-5.883c-11.055,1.681-22.238,4.59-33.293,8.598
			c-16.291,5.883-27.345,21.657-27.345,39.24v70.852c0,6.012,4.849,10.925,10.925,10.925h159.677
			c5.947,0,10.861-4.978,10.861-10.925v-70.788C181.495,139.636,170.44,123.927,153.956,117.98z M21.818,217.083V157.22
			c0-8.404,5.236-15.968,12.994-18.747c7.176-2.521,14.352-4.655,21.527-6.077l24.566,48.937c1.875,3.685,5.624,6.012,9.762,6.012
			c4.073,0,7.887-2.327,9.762-6.012l24.566-48.937c7.176,1.487,14.351,3.556,21.527,6.077c7.822,2.78,12.994,10.343,12.994,18.747
			v59.863H21.818z"/>
	</g>
</g>
<g>
	<g>
		<path d="M90.731,0C64.873,0.129,43.733,21.204,43.733,47.127s21.139,46.869,46.998,46.869s46.998-21.075,46.998-46.998
			C137.729,21.075,116.655,0,90.731,0z M90.731,72.081c-13.77,0-25.083-11.313-25.083-25.083c0-13.77,11.184-25.083,25.083-25.083
			c13.834,0,25.083,11.313,25.083,25.083C115.814,60.768,104.501,72.081,90.731,72.081z"/>
	</g>
</g>
<g>
	<g>
		<path d="M365.091,271.644c-11.119-3.943-22.238-6.788-33.293-8.598c-4.719-0.711-9.244,1.616-11.442,5.883l-18.554,36.848
			l-18.554-36.848c-2.133-4.267-6.723-6.594-11.442-5.883c-10.99,1.681-22.174,4.59-33.293,8.598
			c-16.485,5.883-27.41,21.721-27.41,39.305v70.788c0,6.012,4.848,10.925,10.925,10.925h159.677c6.012,0,10.925-4.848,10.925-10.925
			v-70.723C392.566,293.366,381.511,277.527,365.091,271.644z M232.954,370.877v-59.863c0-8.404,5.236-15.968,12.994-18.747
			c7.176-2.521,14.481-4.655,21.527-6.077l24.566,48.937c1.875,3.685,5.624,6.012,9.762,6.012c4.073,0,7.887-2.327,9.762-6.012
			l24.566-48.937c7.111,1.487,14.352,3.556,21.527,6.077c7.822,2.78,12.994,10.343,12.994,18.747v59.863H232.954z"/>
	</g>
</g>
<g>
	<g>
		<path d="M301.867,153.794c-25.859,0-46.998,21.075-46.998,46.998s21.075,46.998,46.998,46.998
			c25.923,0,46.998-21.075,46.998-46.998C348.865,174.869,327.725,153.794,301.867,153.794z M301.867,225.939
			c-13.834,0-25.083-11.313-25.083-25.083c0-13.77,11.313-25.083,25.083-25.083c13.77,0,25.083,11.313,25.083,25.083
			C326.95,214.626,315.701,225.939,301.867,225.939z"/>
	</g>
</g>
<g>
	<g>
		<path d="M356.105,47.515c-5.883-1.164-11.636,2.715-12.735,8.663l-6.012,31.16l-3.556-5.236
			c-14.287-21.269-36.073-35.62-61.22-40.469c-25.083-4.848-50.683,0.323-71.951,14.675c-5.042,3.426-6.335,10.15-2.909,15.127
			c3.426,4.978,10.15,6.335,15.127,2.909c16.356-11.248,36.137-15.257,55.531-11.507c19.394,3.814,36.267,14.933,47.321,31.289
			l3.556,5.236l-31.095-6.012c-5.947-1.164-11.636,2.715-12.735,8.663c-1.164,5.883,2.715,11.636,8.663,12.735
			c0,0,56.178,11.313,59.022,11.313c5.107,0,9.632-3.62,10.667-8.792l10.99-57.018C365.931,54.368,362.053,48.614,356.105,47.515z"
			/>
	</g>
</g>
<g>
	<g>
		<path d="M183.952,321.487c-3.362-4.913-10.085-6.271-15.063-2.844c-16.356,11.055-36.137,15.063-55.531,11.378
			c-19.394-3.814-36.267-14.933-47.321-31.289l-3.556-5.236l31.095,6.012c5.947,1.164,11.636-2.715,12.735-8.663
			c1.164-5.883-2.715-11.636-8.663-12.735l-56.953-11.055c-5.948-1.164-11.636,2.715-12.735,8.663l-11.055,56.953
			c-1.164,5.883,2.715,11.83,8.663,12.735c5.818,0.905,11.766-3.426,12.735-8.663l6.012-31.16l3.556,5.236
			c14.287,21.269,36.073,35.62,61.22,40.469c6.206,1.228,43.119,4.331,71.952-14.675
			C186.085,333.317,187.378,326.465,183.952,321.487z"/>
	</g>
</g>
</svg>
